<svg id="svg" version="1.1" xmlns="http://www.w3.org/2000/svg" xmlns:xlink="http://www.w3.org/1999/xlink" width="400" height="400" viewBox="0, 0, 400,400"><g id="svgg"><path id="path0" d="M114.016 155.658 C 107.978 161.873,108.040 161.846,104.904 159.600 C 103.675 158.720,102.426 158.000,102.127 158.000 C 101.829 158.000,92.943 166.606,82.381 177.124 L 63.177 196.248 64.341 197.824 C 64.981 198.691,67.250 201.380,69.382 203.800 C 75.267 210.480,75.307 209.306,68.975 215.625 C 63.981 220.609,62.755 222.358,63.900 222.867 C 64.065 222.940,64.809 223.720,65.552 224.600 C 66.296 225.480,67.828 227.190,68.956 228.400 C 72.553 232.257,77.815 238.160,78.741 239.377 L 79.636 240.554 74.009 246.191 L 68.382 251.828 68.856 253.214 C 69.117 253.976,69.453 254.690,69.603 254.800 C 69.752 254.910,70.513 255.844,71.294 256.875 C 72.614 258.616,82.857 269.052,84.570 270.400 C 85.292 270.968,85.317 270.937,85.042 269.834 C 84.694 268.438,135.681 216.839,136.933 217.319 C 137.272 217.449,137.622 217.340,137.711 217.078 C 137.891 216.551,134.193 212.690,133.134 212.298 C 132.639 212.115,127.371 217.141,112.669 231.826 C 101.779 242.702,92.659 251.600,92.402 251.600 C 91.924 251.600,91.497 251.184,86.600 245.937 C 85.060 244.287,81.647 240.642,79.016 237.838 C 76.385 235.033,73.992 232.396,73.699 231.977 C 73.211 231.281,73.654 230.728,78.813 225.587 L 84.462 219.959 82.615 217.797 C 81.600 216.609,78.774 213.423,76.336 210.718 C 73.897 208.013,71.263 205.023,70.481 204.073 L 69.059 202.346 82.030 189.360 C 96.369 175.004,95.309 175.742,98.543 177.859 L 100.087 178.869 105.666 173.204 L 111.245 167.539 112.522 168.527 C 113.225 169.070,114.615 170.298,115.611 171.257 C 118.237 173.784,122.350 177.154,123.590 177.795 C 124.651 178.344,124.716 178.294,130.430 172.570 C 134.344 168.649,136.392 166.868,136.799 167.030 C 139.972 168.293,139.529 167.682,131.837 160.186 C 122.989 151.563,121.600 150.292,121.600 150.818 C 121.600 151.063,121.220 150.979,120.711 150.623 C 119.544 149.806,120.125 149.369,114.016 155.658 M139.200 167.889 C 139.200 168.392,140.343 169.390,140.612 169.121 C 140.718 169.015,140.444 168.602,140.002 168.202 C 139.561 167.803,139.200 167.662,139.200 167.889 M126.165 192.873 C 119.047 199.885,119.022 199.944,122.288 202.112 L 124.566 203.624 130.211 197.989 C 136.081 192.129,136.272 192.015,138.517 192.988 C 139.929 193.600,139.504 192.940,136.525 189.893 C 132.687 185.967,133.376 185.769,126.165 192.873 M138.238 217.539 C 138.110 217.746,138.299 218.029,138.660 218.168 C 139.544 218.507,139.750 218.223,139.045 217.638 C 138.703 217.354,138.377 217.314,138.238 217.539 " stroke="none" fill="#d972c6" fill-rule="evenodd"></path><path id="path1" d="M91.269 121.931 C 90.868 122.332,90.238 122.777,89.869 122.918 C 89.501 123.059,89.200 123.451,89.200 123.787 C 89.200 124.124,89.025 124.400,88.812 124.400 C 88.430 124.400,71.758 140.911,69.375 143.649 C 68.701 144.423,67.846 145.173,67.475 145.316 C 67.104 145.458,66.800 145.851,66.800 146.187 C 66.800 146.524,66.575 146.802,66.300 146.804 C 66.025 146.806,65.170 147.524,64.400 148.400 C 63.630 149.276,62.869 149.994,62.708 149.996 C 62.548 149.998,57.733 154.680,52.008 160.400 C 46.283 166.120,41.447 170.800,41.261 170.800 C 41.076 170.800,40.626 171.129,40.262 171.531 C 39.539 172.331,39.305 176.400,39.983 176.400 C 40.506 176.400,46.800 182.662,46.800 183.183 C 46.800 183.412,47.087 183.600,47.437 183.600 C 47.788 183.600,48.169 183.960,48.284 184.400 C 48.399 184.840,48.759 185.200,49.084 185.200 C 49.409 185.200,49.769 185.560,49.884 186.000 C 49.999 186.440,50.252 186.800,50.447 186.800 C 50.641 186.800,50.800 187.160,50.800 187.600 C 50.800 188.040,50.564 188.400,50.275 188.400 C 49.987 188.400,49.364 188.760,48.892 189.200 C 48.420 189.640,47.852 190.000,47.631 190.000 C 47.409 190.000,47.035 190.360,46.800 190.800 C 46.565 191.240,46.197 191.600,45.984 191.600 C 45.771 191.600,44.247 192.980,42.598 194.667 C 38.074 199.295,38.085 199.343,45.256 206.442 C 51.231 212.356,51.781 213.441,49.150 214.129 C 48.738 214.237,48.400 214.612,48.400 214.963 C 48.400 215.313,48.128 215.600,47.795 215.600 C 46.321 215.600,39.600 223.098,39.600 224.742 C 39.600 226.291,58.030 245.608,59.215 245.300 C 59.427 245.245,59.555 245.366,59.500 245.569 C 59.368 246.055,65.047 251.865,66.483 252.712 C 67.097 253.075,67.600 253.544,67.600 253.755 C 67.600 254.117,71.916 258.400,72.282 258.400 C 72.509 258.400,71.075 256.417,70.106 255.394 C 69.687 254.950,69.127 253.967,68.863 253.208 L 68.382 251.828 74.009 246.191 L 79.636 240.554 78.741 239.377 C 77.815 238.160,72.553 232.257,68.956 228.400 C 67.828 227.190,66.296 225.480,65.552 224.600 C 64.809 223.720,64.065 222.940,63.900 222.867 C 62.755 222.358,63.981 220.609,68.975 215.625 C 75.307 209.306,75.267 210.480,69.382 203.800 C 67.250 201.380,64.981 198.691,64.341 197.824 L 63.177 196.248 82.381 177.124 C 92.943 166.606,101.829 158.000,102.127 158.000 C 102.426 158.000,103.675 158.720,104.904 159.600 C 108.038 161.844,107.969 161.874,114.187 155.599 C 119.534 150.202,119.770 150.019,120.631 150.584 C 121.423 151.103,121.553 151.099,121.764 150.549 C 122.063 149.771,121.729 149.200,120.976 149.200 C 120.659 149.200,120.400 148.973,120.400 148.695 C 120.400 148.417,116.035 143.826,110.700 138.494 C 105.365 133.161,99.834 127.609,98.409 126.156 C 94.159 121.821,92.412 120.788,91.269 121.931 M122.475 151.225 C 122.571 151.514,122.886 151.829,123.175 151.925 C 123.475 152.025,123.625 151.875,123.525 151.575 C 123.429 151.286,123.114 150.971,122.825 150.875 C 122.525 150.775,122.375 150.925,122.475 151.225 M126.673 155.100 C 131.576 159.885,132.718 160.706,128.608 156.493 C 126.412 154.242,124.455 152.400,124.260 152.400 C 124.065 152.400,125.151 153.615,126.673 155.100 M136.022 164.252 C 137.917 166.250,138.737 167.057,141.452 169.597 C 142.743 170.805,141.823 169.770,139.407 167.297 C 136.991 164.823,134.930 162.800,134.828 162.800 C 134.726 162.800,135.263 163.454,136.022 164.252 " stroke="none" fill="#ddc0ec" fill-rule="evenodd"></path><path id="path2" d="M130.664 172.336 C 124.173 178.839,124.307 178.205,128.388 183.167 C 132.315 187.942,132.833 187.994,136.814 184.014 C 138.346 182.481,139.600 181.041,139.600 180.814 C 139.600 180.586,139.876 180.400,140.213 180.400 C 140.549 180.400,140.945 180.085,141.092 179.700 C 141.239 179.315,142.223 178.157,143.279 177.126 C 145.086 175.363,145.924 173.200,144.800 173.200 C 144.580 173.200,144.400 172.840,144.400 172.400 C 144.400 171.879,144.133 171.600,143.636 171.600 C 143.215 171.600,142.417 171.060,141.861 170.400 C 141.306 169.740,140.670 169.200,140.449 169.200 C 140.227 169.200,139.789 168.834,139.476 168.387 C 139.163 167.940,138.568 167.506,138.153 167.422 C 137.739 167.338,137.130 167.161,136.799 167.030 C 136.392 166.868,134.415 168.577,130.664 172.336 M130.371 198.075 L 124.941 203.621 125.722 204.911 C 126.367 205.975,128.891 209.130,131.014 211.525 C 131.960 212.593,133.802 212.518,134.407 211.387 C 134.712 210.816,135.453 210.060,136.053 209.705 C 136.652 209.351,137.229 208.732,137.334 208.331 C 137.439 207.929,137.812 207.600,138.163 207.600 C 138.513 207.600,138.800 207.351,138.800 207.046 C 138.800 206.741,139.214 206.221,139.721 205.889 C 144.632 202.671,146.983 197.200,143.456 197.200 C 143.095 197.200,142.800 196.917,142.800 196.571 C 142.800 195.860,141.868 194.800,141.243 194.800 C 141.015 194.800,140.635 194.440,140.400 194.000 C 140.165 193.560,139.629 193.200,139.210 193.200 C 138.790 193.200,138.360 193.059,138.254 192.887 C 137.401 191.508,135.710 192.621,130.371 198.075 M137.600 217.164 C 137.600 217.390,137.312 217.464,136.959 217.329 C 135.714 216.851,84.686 268.408,85.034 269.793 C 85.235 270.593,85.184 270.837,84.858 270.636 C 84.586 270.468,84.400 270.616,84.400 271.003 C 84.400 271.472,84.624 271.583,85.200 271.400 C 85.858 271.191,86.000 271.328,86.000 272.173 C 86.000 272.933,86.208 273.200,86.800 273.200 C 87.333 273.200,87.600 273.467,87.600 274.000 C 87.600 274.533,87.867 274.800,88.400 274.800 C 88.917 274.800,89.200 275.067,89.200 275.553 C 89.200 275.968,89.515 276.407,89.900 276.529 C 90.285 276.651,91.079 277.064,91.664 277.446 C 92.723 278.138,92.734 278.134,94.264 276.548 C 95.109 275.672,96.115 274.836,96.500 274.690 C 96.885 274.544,97.200 274.149,97.200 273.813 C 97.200 273.476,97.487 273.200,97.837 273.200 C 98.188 273.200,98.569 272.840,98.684 272.400 C 98.799 271.960,99.159 271.600,99.484 271.600 C 99.809 271.600,100.169 271.240,100.284 270.800 C 100.399 270.360,100.748 270.000,101.059 270.000 C 101.370 270.000,101.732 269.721,101.863 269.380 C 102.195 268.516,107.654 263.018,108.504 262.692 C 108.887 262.545,109.200 262.170,109.200 261.859 C 109.200 261.548,109.560 261.199,110.000 261.084 C 110.440 260.969,110.800 260.588,110.800 260.237 C 110.800 259.887,111.076 259.600,111.413 259.600 C 111.749 259.600,112.142 259.295,112.285 258.922 C 112.624 258.040,119.640 251.024,120.522 250.685 C 120.895 250.542,121.200 250.149,121.200 249.813 C 121.200 249.476,121.487 249.200,121.837 249.200 C 122.188 249.200,122.569 248.840,122.684 248.400 C 122.799 247.960,123.148 247.600,123.459 247.600 C 123.770 247.600,124.142 247.295,124.285 246.922 C 124.624 246.040,131.640 239.024,132.522 238.685 C 132.895 238.542,133.200 238.149,133.200 237.813 C 133.200 237.476,133.476 237.200,133.813 237.200 C 134.149 237.200,134.544 236.891,134.689 236.513 C 134.834 236.136,137.258 233.531,140.076 230.724 C 145.635 225.188,145.930 224.609,144.075 222.860 C 143.457 222.277,142.833 221.485,142.688 221.100 C 142.543 220.715,142.169 220.400,141.855 220.400 C 141.542 220.400,141.182 220.130,141.055 219.799 C 140.928 219.469,140.197 218.899,139.429 218.533 C 138.662 218.168,138.119 217.730,138.224 217.562 C 138.328 217.393,138.230 217.142,138.007 217.004 C 137.783 216.866,137.600 216.938,137.600 217.164 " stroke="none" fill="#fc489c" fill-rule="evenodd"></path><path id="path3" d="M112.895 180.105 C 106.498 186.514,106.703 186.093,108.600 188.910 C 109.370 190.054,110.000 191.173,110.000 191.397 C 110.000 191.621,104.240 197.563,97.200 204.600 C 90.160 211.637,84.402 217.486,84.404 217.598 C 84.406 217.709,85.936 219.685,87.804 221.990 C 92.048 227.226,92.211 226.401,85.626 232.974 C 80.497 238.093,80.095 238.600,80.594 239.312 C 81.076 240.001,87.303 246.783,90.667 250.282 C 91.363 251.007,92.144 251.600,92.402 251.600 C 93.554 251.600,132.150 212.398,131.496 211.892 C 130.528 211.142,125.946 205.517,125.492 204.522 C 125.272 204.039,124.801 203.534,124.446 203.399 C 118.698 201.219,118.891 200.039,126.165 192.873 C 129.555 189.533,132.115 186.800,131.853 186.800 C 131.246 186.800,125.487 179.821,125.140 178.666 C 124.997 178.190,124.862 177.940,124.840 178.110 C 124.779 178.582,122.737 177.418,120.829 175.824 C 118.636 173.992,119.419 173.569,112.895 180.105 M177.400 180.800 C 177.254 181.037,174.804 181.200,171.400 181.200 C 167.996 181.200,165.546 181.363,165.400 181.600 C 165.264 181.820,164.843 182.000,164.465 182.000 C 164.086 182.000,163.517 182.360,163.200 182.800 C 162.883 183.240,162.369 183.600,162.058 183.600 C 161.396 183.600,159.601 185.572,159.600 186.300 C 159.600 186.575,159.420 186.800,159.200 186.800 C 158.980 186.800,158.800 187.149,158.800 187.576 C 158.800 188.003,158.620 188.464,158.400 188.600 C 158.180 188.736,158.000 189.996,158.000 191.400 C 158.000 192.804,157.820 194.064,157.600 194.200 C 157.380 194.336,157.200 195.956,157.200 197.800 C 157.200 199.644,157.380 201.264,157.600 201.400 C 157.842 201.550,158.000 204.404,158.000 208.624 C 158.000 213.008,158.149 215.600,158.400 215.600 C 158.620 215.600,158.800 215.960,158.800 216.400 C 158.800 216.840,158.941 217.200,159.114 217.200 C 159.286 217.200,159.746 217.740,160.136 218.400 C 160.526 219.060,161.065 219.600,161.334 219.600 C 161.603 219.600,162.083 219.960,162.400 220.400 C 162.717 220.840,163.297 221.200,163.688 221.200 C 164.080 221.200,164.400 221.380,164.400 221.600 C 164.400 221.820,164.940 222.000,165.600 222.000 C 166.260 222.000,166.800 222.180,166.800 222.400 C 166.800 222.662,174.533 222.800,189.200 222.800 C 203.867 222.800,211.600 222.662,211.600 222.400 C 211.600 222.180,212.140 222.000,212.800 222.000 C 213.460 222.000,214.000 221.820,214.000 221.600 C 214.000 221.380,214.289 221.200,214.643 221.200 C 215.455 221.200,219.600 217.026,219.600 216.209 C 219.600 215.874,219.780 215.600,220.000 215.600 C 220.220 215.600,220.400 214.891,220.400 214.024 C 220.400 213.157,220.580 212.336,220.800 212.200 C 221.020 212.064,221.200 210.731,221.200 209.238 C 221.200 205.092,221.477 205.200,210.869 205.200 L 202.000 205.200 202.000 206.213 C 202.000 207.564,199.564 210.000,198.213 210.000 C 197.656 210.000,197.200 210.180,197.200 210.400 C 197.200 210.649,194.941 210.800,191.224 210.800 C 187.671 210.800,185.147 210.638,185.000 210.400 C 184.864 210.180,183.495 210.000,181.958 210.000 C 178.929 210.000,177.200 208.998,177.200 207.242 C 177.200 206.805,177.020 206.336,176.800 206.200 C 176.208 205.834,176.292 197.777,176.900 196.717 C 177.759 195.219,179.130 194.000,179.958 194.000 C 180.395 194.000,180.864 193.820,181.000 193.600 C 181.153 193.353,184.604 193.200,190.024 193.200 C 195.608 193.200,198.800 193.345,198.800 193.600 C 198.800 193.820,199.083 194.000,199.429 194.000 C 200.408 194.000,202.000 196.107,202.000 197.402 C 202.000 197.938,203.188 198.001,211.500 197.907 L 221.000 197.800 221.118 194.638 C 221.186 192.808,221.060 191.300,220.818 191.058 C 220.588 190.828,220.400 189.956,220.400 189.120 C 220.400 188.284,220.220 187.600,220.000 187.600 C 219.780 187.600,219.600 187.325,219.600 186.989 C 219.600 186.196,216.204 182.800,215.411 182.800 C 215.075 182.800,214.800 182.620,214.800 182.400 C 214.800 182.180,214.440 182.000,214.000 182.000 C 213.560 182.000,213.200 181.820,213.200 181.600 C 213.200 181.380,212.300 181.200,211.200 181.200 C 210.100 181.200,209.200 181.020,209.200 180.800 C 209.200 180.580,208.221 180.400,207.024 180.400 C 205.827 180.400,204.736 180.580,204.600 180.800 C 204.464 181.020,202.934 181.200,201.200 181.200 C 199.466 181.200,197.936 181.020,197.800 180.800 C 197.664 180.580,197.034 180.400,196.400 180.400 C 195.766 180.400,195.136 180.580,195.000 180.800 C 194.864 181.020,193.604 181.200,192.200 181.200 C 190.796 181.200,189.536 181.020,189.400 180.800 C 189.254 180.563,186.804 180.400,183.400 180.400 C 179.996 180.400,177.546 180.563,177.400 180.800 M227.600 201.600 L 227.600 222.800 253.376 222.800 C 270.129 222.800,279.239 222.660,279.400 222.400 C 279.536 222.180,280.070 222.000,280.586 222.000 C 282.950 222.000,287.600 218.369,287.600 216.522 C 287.600 216.015,287.780 215.600,288.000 215.600 C 289.862 215.600,288.086 203.409,285.955 201.561 C 285.169 200.879,284.902 198.800,285.600 198.800 C 285.848 198.800,286.000 196.667,286.000 193.200 C 286.000 189.733,285.848 187.600,285.600 187.600 C 285.380 187.600,285.200 187.240,285.200 186.800 C 285.200 186.360,285.064 186.000,284.898 186.000 C 284.731 186.000,284.361 185.470,284.074 184.823 C 283.788 184.176,283.024 183.412,282.377 183.126 C 281.730 182.839,281.200 182.469,281.200 182.302 C 281.200 182.136,280.851 182.000,280.424 182.000 C 279.997 182.000,279.536 181.820,279.400 181.600 C 279.264 181.380,278.364 181.200,277.400 181.200 C 276.436 181.200,275.536 181.020,275.400 180.800 C 275.240 180.541,266.796 180.400,251.376 180.400 L 227.600 180.400 227.600 201.600 M295.600 201.600 L 295.600 222.800 321.376 222.800 C 338.129 222.800,347.239 222.660,347.400 222.400 C 347.536 222.180,348.070 222.000,348.586 222.000 C 350.950 222.000,355.600 218.369,355.600 216.522 C 355.600 216.015,355.780 215.600,356.000 215.600 C 357.862 215.600,356.086 203.409,353.955 201.561 C 353.169 200.879,352.902 198.800,353.600 198.800 C 353.848 198.800,354.000 196.667,354.000 193.200 C 354.000 189.733,353.848 187.600,353.600 187.600 C 353.380 187.600,353.200 187.240,353.200 186.800 C 353.200 186.360,353.064 186.000,352.898 186.000 C 352.731 186.000,352.361 185.470,352.074 184.823 C 351.788 184.176,351.024 183.412,350.377 183.126 C 349.730 182.839,349.200 182.469,349.200 182.302 C 349.200 182.136,348.851 182.000,348.424 182.000 C 347.997 182.000,347.536 181.820,347.400 181.600 C 347.264 181.380,346.364 181.200,345.400 181.200 C 344.436 181.200,343.536 181.020,343.400 180.800 C 343.240 180.541,334.796 180.400,319.376 180.400 L 295.600 180.400 295.600 201.600 M130.194 198.100 L 125.000 203.400 130.300 198.206 C 135.223 193.381,135.781 192.800,135.494 192.800 C 135.436 192.800,133.051 195.185,130.194 198.100 M265.302 193.700 C 266.060 195.955,264.348 196.400,254.920 196.400 L 246.800 196.400 246.800 194.800 L 246.800 193.200 255.967 193.200 C 262.944 193.200,265.174 193.319,265.302 193.700 M333.302 193.700 C 334.060 195.955,332.348 196.400,322.920 196.400 L 314.800 196.400 314.800 194.800 L 314.800 193.200 323.967 193.200 C 330.944 193.200,333.174 193.319,333.302 193.700 M267.829 208.171 C 268.661 209.004,268.536 210.000,267.600 210.000 C 267.160 210.000,266.800 210.180,266.800 210.400 C 266.800 210.656,263.200 210.800,256.800 210.800 L 246.800 210.800 246.800 209.200 L 246.800 207.600 257.029 207.600 C 265.360 207.600,267.363 207.706,267.829 208.171 M335.829 208.171 C 336.661 209.004,336.536 210.000,335.600 210.000 C 335.160 210.000,334.800 210.180,334.800 210.400 C 334.800 210.656,331.200 210.800,324.800 210.800 L 314.800 210.800 314.800 209.200 L 314.800 207.600 325.029 207.600 C 333.360 207.600,335.363 207.706,335.829 208.171 " stroke="none" fill="#d444af" fill-rule="evenodd"></path><path id="path4" d="M105.544 173.265 L 100.087 178.869 98.544 177.859 C 95.309 175.742,96.369 175.004,82.030 189.360 L 69.059 202.346 70.481 204.073 C 71.263 205.023,73.897 208.013,76.336 210.718 C 78.774 213.423,81.600 216.609,82.615 217.797 L 84.462 219.959 78.813 225.587 C 72.328 232.048,72.518 230.940,77.075 235.751 L 79.889 238.721 85.545 233.055 C 92.222 226.366,92.047 227.225,87.804 221.990 C 85.936 219.685,84.406 217.709,84.404 217.598 C 84.402 217.486,90.160 211.637,97.200 204.600 C 104.240 197.563,110.000 191.621,110.000 191.397 C 110.000 191.173,109.370 190.054,108.600 188.910 C 106.697 186.085,106.496 186.493,112.987 180.013 L 118.773 174.237 117.073 172.619 C 114.375 170.050,111.509 167.597,111.244 167.631 C 111.110 167.648,108.545 170.183,105.544 173.265 " stroke="none" fill="#bc5bc8" fill-rule="evenodd"></path></g></svg>